<svg width="22" height="22" viewBox="0 0 22 22" fill="none" xmlns="http://www.w3.org/2000/svg">
<path d="M11 1.57143C16.2069 1.57143 20.4286 5.79307 20.4286 11C20.4286 16.2069 16.2069 20.4286 11 20.4286C5.79305 20.4286 1.57141 16.2069 1.57141 11C1.57141 5.79307 5.79305 1.57143 11 1.57143ZM11 2.75C6.44363 2.75 2.74998 6.44364 2.74998 11C2.74998 15.5564 6.44363 19.25 11 19.25C15.5563 19.25 19.25 15.5564 19.25 11C19.25 6.44364 15.5563 2.75 11 2.75ZM11 6.28571C11.1563 6.28571 11.3062 6.3478 11.4167 6.45831C11.5272 6.56882 11.5893 6.71871 11.5893 6.875V10.4107H15.125C15.2813 10.4107 15.4312 10.4728 15.5417 10.5833C15.6522 10.6938 15.7143 10.8437 15.7143 11C15.7143 11.1563 15.6522 11.3062 15.5417 11.4167C15.4312 11.5272 15.2813 11.5893 15.125 11.5893H11.5893V15.125C11.5893 15.2813 11.5272 15.4312 11.4167 15.5417C11.3062 15.6522 11.1563 15.7143 11 15.7143C10.8437 15.7143 10.6938 15.6522 10.5833 15.5417C10.4728 15.4312 10.4107 15.2813 10.4107 15.125V11.5893H6.87498C6.71869 11.5893 6.56881 11.5272 6.4583 11.4167C6.34778 11.3062 6.2857 11.1563 6.2857 11C6.2857 10.8437 6.34778 10.6938 6.4583 10.5833C6.56881 10.4728 6.71869 10.4107 6.87498 10.4107H10.4107V6.875C10.4107 6.71871 10.4728 6.56882 10.5833 6.45831C10.6938 6.3478 10.8437 6.28571 11 6.28571V6.28571Z" fill="black"/>
</svg>
