<svg width="22" height="22" viewBox="0 0 22 22" fill="none" xmlns="http://www.w3.org/2000/svg">
<path d="M8.67955 9.8274H2.4937C1.9327 9.8274 1.4762 9.37035 1.4762 8.8077V2.6224C1.4762 2.0614 1.9327 1.6049 2.4937 1.6049H8.67955C9.24055 1.6049 9.69705 2.0614 9.69705 2.6224V8.80825C9.69705 9.37035 9.24055 9.8274 8.67955 9.8274V9.8274ZM2.4937 2.0922C2.35317 2.09235 2.21846 2.14827 2.11914 2.24769C2.01983 2.34711 1.96405 2.48188 1.96405 2.6224V8.80825C1.96405 9.1014 2.20165 9.3401 2.4937 9.3401H8.67955C8.82027 9.33967 8.95506 9.28342 9.05436 9.18371C9.15366 9.084 9.20934 8.94897 9.2092 8.80825V2.6224C9.2092 2.48188 9.15341 2.34711 9.0541 2.24769C8.95479 2.14827 8.82007 2.09235 8.67955 2.0922H2.4937ZM19.5079 9.8274H13.3204C13.0504 9.82682 12.7917 9.71911 12.601 9.52793C12.4104 9.33675 12.3034 9.07771 12.3035 8.8077V2.6224C12.3035 2.0614 12.7594 1.6049 13.3204 1.6049H19.5079C19.7775 1.60534 20.0359 1.71273 20.2264 1.90351C20.4168 2.09428 20.5238 2.35283 20.5238 2.6224V8.80825C20.5238 9.07798 20.4169 9.3367 20.2265 9.52774C20.036 9.71877 19.7777 9.82653 19.5079 9.8274V9.8274ZM13.3204 2.0922C13.1799 2.09235 13.0452 2.14827 12.9459 2.24769C12.8466 2.34711 12.7908 2.48188 12.7908 2.6224V8.80825C12.7908 9.1014 13.0284 9.3401 13.3204 9.3401H19.5079C19.7939 9.3401 20.0359 9.09645 20.0359 8.80825V2.6224C20.0361 2.55292 20.0225 2.48409 19.9961 2.41984C19.9696 2.35559 19.9308 2.29719 19.8818 2.24795C19.8327 2.19872 19.7745 2.15962 19.7103 2.1329C19.6462 2.10618 19.5774 2.09235 19.5079 2.0922H13.3204ZM8.67955 20.3957H2.4937C1.9327 20.3957 1.4762 19.9392 1.4762 19.3782V13.1907C1.4762 12.6291 1.9327 12.1726 2.4937 12.1726H8.67955C9.24055 12.1726 9.69705 12.6291 9.69705 13.1907V19.3776C9.69705 19.9386 9.24055 20.3957 8.67955 20.3957ZM2.4937 12.6605C2.35322 12.6607 2.21859 12.7167 2.1193 12.8161C2.02002 12.9155 1.96419 13.0502 1.96405 13.1907V19.3776C1.96405 19.6702 2.20165 19.9078 2.4937 19.9078H8.67955C8.82007 19.9077 8.95479 19.8517 9.0541 19.7523C9.15341 19.6529 9.2092 19.5181 9.2092 19.3776V13.1907C9.2092 13.0501 9.15341 12.9154 9.0541 12.8159C8.95479 12.7165 8.82007 12.6606 8.67955 12.6605H2.4937V12.6605ZM19.5079 20.3957H13.3204C12.7594 20.3957 12.3035 19.9392 12.3035 19.3782V13.1907C12.3035 12.6291 12.7594 12.1726 13.3204 12.1726H19.5079C20.0678 12.1726 20.5238 12.6291 20.5238 13.1907V19.3776C20.5237 19.6472 20.4167 19.9057 20.2262 20.0965C20.0358 20.2874 19.7775 20.3949 19.5079 20.3957ZM13.3204 12.6605C13.18 12.6607 13.0453 12.7167 12.9461 12.8161C12.8468 12.9155 12.7909 13.0502 12.7908 13.1907V19.3776C12.7908 19.6702 13.0284 19.9078 13.3204 19.9078H19.5079C19.7994 19.9078 20.0359 19.6702 20.0359 19.3776V13.1907C20.0361 13.1212 20.0225 13.0523 19.9961 12.9881C19.9696 12.9238 19.9308 12.8654 19.8818 12.8162C19.8327 12.767 19.7745 12.7279 19.7103 12.7012C19.6462 12.6744 19.5774 12.6606 19.5079 12.6605H13.3204V12.6605Z" fill="black"/>
</svg>
