<svg width="22" height="22" viewBox="0 0 22 22" fill="none" xmlns="http://www.w3.org/2000/svg">
<path d="M3.64552 9.01999C3.6824 8.56057 3.89096 8.13188 4.22969 7.81931C4.56842 7.50675 5.01245 7.33323 5.47336 7.33333H16.5265C16.9874 7.33323 17.4315 7.50675 17.7702 7.81931C18.1089 8.13188 18.3175 8.56057 18.3544 9.01999L19.0904 18.1867C19.1107 18.4389 19.0785 18.6926 18.9959 18.9318C18.9132 19.1711 18.782 19.3906 18.6104 19.5766C18.4388 19.7625 18.2305 19.911 17.9987 20.0126C17.7669 20.1141 17.5166 20.1666 17.2635 20.1667H4.73636C4.48329 20.1666 4.23297 20.1141 4.00117 20.0126C3.76937 19.911 3.56111 19.7625 3.3895 19.5766C3.21788 19.3906 3.08663 19.1711 3.00401 18.9318C2.9214 18.6926 2.88919 18.4389 2.90944 18.1867L3.64552 9.01999V9.01999Z" stroke="black" stroke-width="2" stroke-linecap="round" stroke-linejoin="round"/>
<path d="M14.6666 10.0833V5.49999C14.6666 4.52753 14.2803 3.5949 13.5926 2.90727C12.905 2.21964 11.9724 1.83333 10.9999 1.83333C10.0275 1.83333 9.09483 2.21964 8.40719 2.90727C7.71956 3.5949 7.33325 4.52753 7.33325 5.49999V10.0833" stroke="black" stroke-width="2" stroke-linecap="round" stroke-linejoin="round"/>
</svg>
